<svg width="92" height="100" viewBox="0 0 92 100" fill="none" xmlns="http://www.w3.org/2000/svg">
<path d="M76.9131 43.0045C64.4051 30.9398 46.8579 28.1721 37.2607 36.5443L27.041 28.8783L29.84 26.1783C29.921 26.0857 29.9909 25.9844 30.048 25.8764C31.1392 26.3883 32.3381 26.651 33.5514 26.6437C36.3314 26.6437 40.086 25.3562 44.7846 20.9357C49.4522 15.9707 52.6659 9.89707 54.0957 3.33808C54.1793 2.44101 53.8448 1.55468 53.1829 0.919528C52.5088 0.265427 51.569 -0.0671905 50.6163 0.0113251H50.6139C46.7692 0.340036 39.5595 1.60625 34.4778 6.38672C29.5336 11.0383 26.4627 16.4127 26.4627 20.4133C26.4325 21.6084 26.7747 22.785 27.4453 23.7904C27.4306 23.8037 27.4111 23.8078 27.3968 23.8215L24.2922 26.816L22.3396 25.3514C21.8526 24.9848 21.1995 24.8969 20.6271 25.1209C20.0547 25.3449 19.6499 25.8469 19.5654 26.4373C19.481 27.0277 19.7301 27.6164 20.2185 27.9816L34.9122 39.0037C31.7764 43.2561 30.4098 48.4891 31.0831 53.6668L31.089 53.7293C15.5343 55.6646 4 65.3004 4 76.6666C3.9998 89.5328 18.7275 100 36.8302 100C49.2224 100 60.5515 95.0125 66.0935 87.2332C66.8747 87.2979 67.649 87.3422 68.4077 87.3422C73.8438 87.4965 79.115 85.5322 83.0318 81.893C92.4502 72.7896 89.7055 55.3449 76.9131 43.0045ZM36.8909 8.77265C41.2066 4.71347 47.7065 3.64082 50.6115 3.35937C49.195 8.99687 46.3656 14.2129 42.3717 18.5498C38.5661 22.1285 35.0665 23.7244 32.5125 23.1881L36.3239 19.5115C36.9883 18.859 36.9833 17.8121 36.313 17.1654C35.6426 16.5187 34.5572 16.5141 33.8807 17.1549L29.9898 20.9078C29.9534 20.7449 29.9295 20.5797 29.9186 20.4133C29.9186 17.884 32.0743 13.3039 36.8909 8.77265ZM63.7665 84.6076C59.0831 91.9334 48.5096 96.6666 36.8302 96.6666C20.6328 96.6666 7.4555 87.6953 7.4555 76.6666C7.4555 66.6211 18.4854 58.0988 33.1473 56.8408C34.3707 56.718 35.6 56.6598 36.8302 56.6666C53.0278 56.6666 66.2048 65.6379 66.2048 76.6666C66.1901 79.4832 65.3443 82.2375 63.7665 84.6076ZM80.5867 79.5377C77.2059 82.6209 72.6615 84.2307 68.0153 83.991C69.0984 81.6904 69.6595 79.1932 69.6607 76.6666C69.6607 63.8004 54.933 53.3332 36.8304 53.3332C36.0113 53.3332 35.252 53.3562 34.5279 53.3943L34.5246 53.3594C33.778 48.308 35.4358 43.2016 39.0359 39.4629C47.1262 31.6748 63.0217 34.3213 74.4701 45.3613C85.9165 56.4029 88.6594 71.735 80.5867 79.5377Z" fill="white"/>
<path d="M79.0335 63.332C79.5824 63.332 80.0988 63.0804 80.4246 62.6542C80.7504 62.2281 80.847 61.6779 80.6846 61.172C78.9512 56.0857 75.9815 51.4732 72.023 47.7199C71.3467 47.073 70.2555 47.0759 69.5826 47.7261C68.9097 48.3763 68.9093 49.429 69.5812 50.0798C73.143 53.4486 75.8183 57.5898 77.3838 62.1583C77.6081 62.8558 78.2765 63.3314 79.0335 63.332Z" fill="white"/>
<path d="M81.3117 67.1956C80.9993 66.8723 80.5664 66.6821 80.1083 66.6667C79.6489 66.6456 79.2002 66.8042 78.8636 67.1067C78.5271 67.4092 78.3313 67.8297 78.3206 68.2733C78.2908 69.2647 78.1343 70.2485 77.8548 71.203C77.6768 71.7768 77.8317 72.3985 78.2606 72.8315C78.6893 73.2647 79.3261 73.4426 79.9285 73.2977C80.5309 73.1528 81.0064 72.7073 81.1741 72.1307C81.5329 70.9126 81.7345 69.6563 81.7748 68.3905C81.7908 67.9485 81.6244 67.5188 81.3117 67.1956Z" fill="white"/>
<path d="M57.3291 68.6934C56.5825 69.2668 56.4594 70.3154 57.0541 71.0355C57.4358 71.4945 57.7797 71.9814 58.0826 72.4922C58.555 73.2922 59.6104 73.5713 60.44 73.1156C61.2696 72.66 61.5588 71.6418 61.0863 70.8418C60.6941 70.1822 60.2499 69.5525 59.7574 68.9588C59.1627 68.2387 58.0755 68.1199 57.3291 68.6934Z" fill="white"/>
<path d="M51.3724 62.9277C46.7969 60.9648 41.8396 59.9666 36.832 59.9996C35.8776 59.9996 35.1041 60.7457 35.1041 61.6662C35.1041 62.5867 35.8776 63.3328 36.832 63.3328C41.3435 63.2992 45.8104 64.1943 49.9347 65.9582C50.4964 66.2088 51.1541 66.1504 51.6591 65.805C52.1639 65.4597 52.4387 64.8804 52.3796 64.2863C52.3205 63.6922 51.9361 63.174 51.3724 62.9277Z" fill="white"/>
<path d="M19.5527 66.6663C14.7892 66.6663 10.9131 71.152 10.9131 76.6663C10.9131 82.1805 14.7892 86.6663 19.5527 86.6663C24.3163 86.6663 28.1924 82.1805 28.1924 76.6663C28.1924 71.152 24.3163 66.6663 19.5527 66.6663ZM19.5527 83.3329C16.6942 83.3329 14.369 80.343 14.369 76.6663C14.369 72.9895 16.6942 69.9997 19.5527 69.9997C22.4113 69.9997 24.7365 72.9895 24.7365 76.6663C24.7365 80.343 22.4113 83.3329 19.5527 83.3329Z" fill="white"/>
</svg>
