<svg width="155" height="28" viewBox="0 0 155 28" fill="none" xmlns="http://www.w3.org/2000/svg">
<path d="M55.309 27.6878C49.7166 27.6878 44.5253 25.9986 41.0601 22.866C38.4422 20.4993 37.1842 17.2845 37.1842 13.9758C37.1842 10.7074 38.4964 7.47048 41.0598 5.11625C44.2779 2.16223 49.9596 0.312256 55.309 0.312256C61.2287 0.312256 65.9668 1.81409 69.5888 5.12437C72.1658 7.47985 73.4117 10.7024 73.4117 13.9761C73.4117 17.1493 72.0896 20.5286 69.5888 22.866C66.216 26.0189 60.9156 27.6878 55.309 27.6878V24.0771C58.2772 24.0771 61.0306 23.0449 62.9536 21.1178C64.8632 19.2038 65.7529 16.8512 65.7529 13.9758C65.7529 11.2213 64.7931 8.64603 62.9536 6.81948C61.0564 4.93734 58.2372 3.87825 55.309 3.87825C52.3717 3.87825 49.5507 4.92642 47.652 6.81948C45.8223 8.64541 44.8601 11.2282 44.8601 13.9758C44.8601 16.715 45.8335 19.2963 47.652 21.1181C49.5523 23.0221 52.3633 24.0775 55.309 24.0775V27.6881V27.6878ZM14.4342 0.32537C11.4427 0.32537 8.04419 0.888948 5.15654 2.18783C2.49147 3.38555 0.309998 5.32264 0.309998 8.53394C0.308758 11.4261 2.13373 13.12 2.08413 13.0732C2.86037 13.7929 4.10998 15.0184 7.37707 15.7381C8.83717 16.0597 11.9589 16.5536 15.0675 16.8808C18.1533 17.2087 21.19 17.5203 22.4269 17.8356C23.4096 18.0876 25.0604 18.4307 25.0604 20.296C25.0604 22.1538 23.3213 22.7208 23.019 22.8438C22.7171 22.964 20.6308 23.9282 16.8804 23.9282C14.1115 23.9282 10.7827 23.0896 9.56939 22.6524C8.17067 22.151 6.70344 21.4878 5.33479 19.8039C4.99441 19.3865 4.45749 18.2384 4.45749 17.1016H1.0633V26.6808H4.836V25.3866C4.836 25.2393 5.0189 24.6332 5.65223 24.9214C6.44025 25.282 8.75347 26.2097 11.1721 26.7183C13.1552 27.1361 14.4339 27.4355 16.8993 27.4355C20.9219 27.4355 23.0829 26.7754 24.5768 26.3458C25.9842 25.9399 27.7233 25.2112 29.136 24.0765C29.901 23.463 31.5788 21.8903 31.5788 19.0355C31.5788 16.2954 30.1187 14.5947 29.605 14.0773C28.9053 13.3723 28.0507 12.8259 27.16 12.4047C26.3841 12.0369 25.1596 11.5951 24.1577 11.3481C22.213 10.8672 17.816 10.274 15.7133 10.0523C13.5082 9.82033 9.68316 9.50123 8.15548 9.02508C7.69234 8.88052 6.74808 8.42747 6.74808 7.32342C6.74808 6.53816 7.17991 5.87248 8.03334 5.3345C9.38804 4.47961 12.1244 3.94819 14.9767 3.94819C18.3489 3.9357 21.2046 4.71222 23.0212 5.53027C23.639 5.80816 24.362 6.20719 24.9361 6.67928C25.584 7.21133 26.4935 8.31694 26.8224 9.85905H29.8697V1.52059H26.4672V2.48976C26.4672 2.80262 26.1463 3.20914 25.5397 2.87318C24.0169 2.06856 19.7117 0.332551 14.4336 0.32537H14.4342ZM88.9998 1.84063L105.598 16.9277L105.427 6.76983C105.411 5.43785 105.167 4.88177 103.737 4.88177H100.616V1.84313H114.808V4.88177H111.763C110.305 4.88177 110.212 5.35167 110.195 6.76983L110.452 26.1791H105.592L86.4742 8.99386L86.4782 21.1902C86.495 22.516 86.5566 23.1404 87.9129 23.1404H91.3213V26.1778H77.3837V23.1408H80.6419C81.8589 23.1408 81.8105 21.9721 81.8105 21.1212V6.88536C81.8105 5.96646 81.6825 4.88395 79.7717 4.88395H77.128V1.84063H88.9998ZM131.025 23.1348C131.158 23.1348 131.75 23.1177 131.865 23.0824C132.192 22.9793 132.415 22.7439 132.518 22.4985C132.561 22.3955 132.583 21.9396 132.583 21.8406L132.585 17.0385C132.585 16.923 132.577 16.873 132.382 16.6157C132.168 16.3347 123.688 6.65555 123.3 6.22936C122.818 5.70013 121.972 4.88208 120.686 4.88208H117.737V1.84219H134.38V4.87833H132.373C131.909 4.87833 131.601 5.3217 131.997 5.8144C131.997 5.8144 137.597 12.5608 137.65 12.6314C137.702 12.7032 137.747 12.7203 137.818 12.6548C137.888 12.5876 143.558 5.87622 143.603 5.82314C143.872 5.4978 143.689 4.88177 143.108 4.88177H141.05V1.84219H154.69V4.88177H151.643C150.537 4.88177 150.087 5.08784 149.256 6.03484C148.875 6.46821 140.305 16.3213 140.072 16.5883C139.949 16.7278 139.96 16.9224 139.96 17.0379V21.8394C139.96 21.9368 139.982 22.3933 140.025 22.4957C140.128 22.7424 140.352 22.9778 140.679 23.0796C140.794 23.1152 141.378 23.1326 141.511 23.1326H144.628V26.1719H128.071V23.1323L131.025 23.1348H131.025Z" fill="black"/>
</svg>
