<svg width="91" height="100" viewBox="0 0 91 100" fill="none" xmlns="http://www.w3.org/2000/svg">
<path fill-rule="evenodd" clip-rule="evenodd" d="M29.1504 73.0063L37.1083 65.5052C40.5727 68.2638 44.9697 69.9137 49.7546 69.9137C55.6717 69.9137 60.9956 67.3906 64.6962 63.368L72.3039 71.2643C66.6364 77.1432 58.6569 80.8037 49.8169 80.8037C41.8861 80.8037 34.6479 77.8574 29.1504 73.0063ZM27.7892 71.7308C22.1615 66.1332 18.6813 58.4035 18.6813 49.8662C18.6813 41.304 22.1819 33.5542 27.8385 27.9526L35.6424 35.3905C31.8637 39.0439 29.5165 44.1518 29.5165 49.8043C29.5165 55.4857 31.8876 60.6168 35.7002 64.2739L27.7892 71.7308ZM29.2024 26.6804C34.6935 21.8565 41.9111 18.9287 49.8169 18.9287C58.6879 18.9287 66.6924 22.615 72.3635 28.5301L64.8121 36.3678C61.1073 32.2713 55.7337 29.695 49.7546 29.695C44.9403 29.695 40.5185 31.3653 37.0444 34.1546L29.2024 26.6804Z" fill="#FAFAFA"/>
<path d="M50.0037 99.3662C54.3027 99.3662 57.7876 95.9034 57.7876 91.6318C57.7876 87.3603 54.3027 83.8975 50.0037 83.8975C45.7048 83.8975 42.2198 87.3603 42.2198 91.6318C42.2198 95.9034 45.7048 99.3662 50.0037 99.3662Z" fill="#FAFAFA"/>
<path d="M50.0037 15.835C54.3027 15.835 57.7876 12.3722 57.7876 8.10059C57.7876 3.82901 54.3027 0.366211 50.0037 0.366211C45.7048 0.366211 42.2198 3.82901 42.2198 8.10059C42.2198 12.3722 45.7048 15.835 50.0037 15.835Z" fill="#FAFAFA"/>
<path d="M7.78389 56.0535C12.0828 56.0535 15.5678 52.5907 15.5678 48.3191C15.5678 44.0475 12.0828 40.5847 7.78389 40.5847C3.48497 40.5847 0 44.0475 0 48.3191C0 52.5907 3.48497 56.0535 7.78389 56.0535Z" fill="#FAFAFA"/>
<path fill-rule="evenodd" clip-rule="evenodd" d="M83.7943 52.9915L76.4356 73.1518L63.1476 59.2382L83.7943 52.9915Z" fill="#FAFAFA"/>
</svg>
